<svg xmlns="http://www.w3.org/2000/svg" width="28" height="28" viewBox="0 0 28 28"><path d="M16 21.484v-2.969q0-.219-.148-.367T15.5 18h-3q-.203 0-.352.148t-.148.367v2.969q0 .219.148.367t.352.148h3q.203 0 .352-.148t.148-.367zm-.031-5.843l.281-7.172q0-.187-.156-.297Q15.891 8 15.719 8h-3.437q-.172 0-.375.172-.156.109-.156.328l.266 7.141q0 .156.156.258t.375.102h2.891q.219 0 .367-.102t.164-.258zM15.75 1.047l12 22q.547.984-.031 1.969-.266.453-.727.719t-.992.266H2q-.531 0-.992-.266t-.727-.719q-.578-.984-.031-1.969l12-22q.266-.484.734-.766T14 0t1.016.281.734.766z"/></svg>