<svg xmlns="http://www.w3.org/2000/svg" viewBox="0 0 32 32"><path d="M26.3 18.4c-.4-.4-1.4-.6-2.8-.7-1 0-2.1.1-3.4.2-.6-.3-1.1-.7-1.6-1.1-1.2-1.1-2.2-2.7-2.8-4.4 0-.2.1-.3.1-.4 0 0 .7-3.8.5-5.1 0-.2 0-.2-.1-.4l-.1-.2c-.1-.3-.5-.8-1-.7h-.3c-.6 0-1.1.3-1.3.8-.4 1.5 0 3.8.8 6.7l-.3.5c-.6 1.3-1.2 2.7-1.8 3.9l-.1.2c-.6 1.3-1.2 2.3-1.7 3.2l-.5.3-1.2.6c-1.9 1.1-3.1 2.4-3.3 3.4-.1.3 0 .7.3.9l.5.3c.2.1.5.2.7.2 1.3 0 2.9-1.6 5-5.3 2.4-.8 5.2-1.5 7.6-1.8 1.9 1 4.1 1.8 5.6 1.8.3 0 .5 0 .7-.1.3-.1.5-.2.6-.4.3-.4.3-1 .3-1.6-.1-.4-.2-.6-.4-.8zm-19.7 7c.2-.7 1.2-2 2.6-3.1l.5-.5c-1.4 2.4-2.4 3.3-3.1 3.6zM15 6.2c.4 0 .7 1.1.7 2.1s-.2 1.7-.5 2.2c-.2-.8-.4-2-.4-2.8 0 .1 0-1.5.2-1.5zm-2.5 13.7c.3-.5.6-1.1.9-1.7.8-1.4 1.2-2.6 1.6-3.5.7 1.3 1.6 2.4 2.7 3.3.1.1.3.2.4.3-2.2.5-4 1-5.6 1.6zm13.4-.1c-.1.1-.5.1-.7.1-.8 0-1.7-.4-3.1-.9.5 0 1-.1 1.4-.1.8 0 1 0 1.8.2s.7.6.6.7z"/></svg>