<svg xmlns="http://www.w3.org/2000/svg" width="28" height="28" viewBox="0 0 28 28"><path d="M16.759 22.288c-.009.003-.839.279-1.559.279-.397 0-.558-.082-.609-.119-.252-.175-.72-.504.081-2.1l1.5-2.991c.89-1.776 1.022-3.494.368-4.838-.534-1.1-1.559-1.854-2.88-2.124a7.135 7.135 0 0 0-1.437-.145c-2.774 0-4.641 1.62-4.719 1.689a.75.75 0 0 0 .74 1.272c.007-.003.839-.281 1.559-.281.395 0 .554.082.603.117.254.177.723.51-.077 2.103l-1.5 2.993c-.891 1.778-1.022 3.495-.368 4.838.534 1.1 1.557 1.854 2.882 2.124.471.095.954.145 1.431.145 2.775 0 4.644-1.62 4.722-1.689a.75.75 0 0 0-.737-1.273zM19.25 5.001a3.75 3.75 0 1 1-7.5 0 3.75 3.75 0 0 1 7.5 0z"/></svg>