<svg xmlns="http://www.w3.org/2000/svg" width="16" height="28" viewBox="0 0 16 28"><path d="M11.5 9q0 .203-.148.352T11 9.5t-.352-.148T10.5 9q0-.719-.844-1.109T8 7.5q-.203 0-.352-.148T7.5 7t.148-.352T8 6.5q.781 0 1.555.25t1.359.844T11.5 9zM14 9q0-1.125-.539-2.094T12.055 5.32t-1.922-.969T8 3.999t-2.133.352-1.922.969-1.406 1.586T2 9q0 1.578 1.062 2.812.156.172.477.516t.477.516q2 2.391 2.203 4.656h3.563q.203-2.266 2.203-4.656.156-.172.477-.516t.477-.516Q14.001 10.578 14.001 9zm2 0q0 2.422-1.609 4.188-.703.766-1.164 1.359t-.93 1.492-.531 1.68q.734.438.734 1.281 0 .578-.391 1 .391.422.391 1 0 .812-.703 1.266.203.359.203.734 0 .719-.492 1.109t-1.211.391q-.313.688-.938 1.094T8 26t-1.359-.406-.938-1.094q-.719 0-1.211-.391T4 23q0-.375.203-.734Q3.5 21.813 3.5 21q0-.578.391-1-.391-.422-.391-1 0-.844.734-1.281-.063-.781-.531-1.68t-.93-1.492-1.164-1.359Q0 11.422 0 9q0-1.547.695-2.883t1.828-2.219 2.562-1.391 2.914-.508 2.914.508 2.562 1.391 1.828 2.219T15.998 9z"/></svg>